<?xml version="1.0" encoding="utf-8"?>
<!-- Generator: Adobe Illustrator 24.1.1, SVG Export Plug-In . SVG Version: 6.00 Build 0)  -->
<svg version="1.1"
	 id="svg2" inkscape:version="0.48.4 r9939" sodipodi:docname="logo.svg" xmlns:cc="http://creativecommons.org/ns#" xmlns:dc="http://purl.org/dc/elements/1.1/" xmlns:inkscape="http://www.inkscape.org/namespaces/inkscape" xmlns:rdf="http://www.w3.org/1999/02/22-rdf-syntax-ns#" xmlns:sodipodi="http://sodipodi.sourceforge.net/DTD/sodipodi-0.dtd" xmlns:svg="http://www.w3.org/2000/svg"
	 xmlns="http://www.w3.org/2000/svg" xmlns:xlink="http://www.w3.org/1999/xlink" x="0px" y="0px" viewBox="0 0 144 24"
	 style="enable-background:new 0 0 144 24;" xml:space="preserve">
<style type="text/css">
	.st0{fill:#FFFFFF;}
</style>
<sodipodi:namedview  bordercolor="#666666" borderopacity="1" fit-margin-bottom="0" fit-margin-left="0" fit-margin-right="0" fit-margin-top="0" gridtolerance="10" guidetolerance="10" id="namedview6" inkscape:current-layer="svg2" inkscape:cx="119.216" inkscape:cy="-17.0856" inkscape:pageopacity="0" inkscape:pageshadow="2" inkscape:snap-bbox="true" inkscape:window-height="1148" inkscape:window-maximized="1" inkscape:window-width="1920" inkscape:window-x="0" inkscape:window-y="0" inkscape:zoom="3.20763" objecttolerance="10" pagecolor="#ffffff" showgrid="true">
	
		<inkscape:grid  empspacing="4" enabled="true" id="grid2985" originx="-13.0035px" originy="1.99605px" snapvisiblegridlinesonly="true" type="xygrid" visible="true">
		</inkscape:grid>
</sodipodi:namedview>
<g transform="translate(0.000000,72.000000) scale(0.100000,-0.100000)">
	<path class="st0" d="M938.5,604.4c-12.8-31.2-23.6-58.1-24.1-59.8c-0.7-2.8,0.5-3.1,11.3-3.1h12l2.6,7.4l2.8,7.3h19.7h19.7l2.6-7.3
		l2.4-7.4h23.1h22.9l0.5,18.5l0.5,18.3L1051,560l16.4-18.2l15.3-0.2c8.3-0.2,15.1,0.3,15.1,0.9c0,0.5-5.7,7.1-12.5,14.8
		c-6.9,7.6-12.8,14.6-13.2,15.5c-0.3,0.7,1.7,1.9,4.5,2.6c5.9,1.2,14.9,10,17.6,17.3c3.5,8.5,2.6,30.5-1.4,39.3
		c-6.7,15.3-16.4,18.5-55.3,18.7h-26.6v-52.4l-0.2-52.5l-23.6,57.7c-13,31.5-24.1,57.6-24.6,57.6C962.1,661,951.1,635.6,938.5,604.4
		z M1070.9,622.7c1.9-1.9,3-5.9,3-11.3c0-12.5-3.5-14.6-23.9-14.6h-16.2v14.9v14.9l17.3-0.7C1063.9,625.7,1068.8,624.8,1070.9,622.7
		z"/>
	<path class="st0" d="M799.5,650.6l-25.3-0.9l-16.6-15.8l-16.8-15.8v-39.7v-39.5l13,12.8c12.3,12.1,12.8,13,8.6,13.5
		c-4.4,0.5-4.4,0.7-4.4,17.3v16.8l14.4,14.4c13.5,13.5,14.8,14.2,22,14.2c7.1,0.2,8.8,1.2,19.9,11.3c6.6,6,11.6,11.3,11.3,11.6
		C825.1,651.3,813.4,651.1,799.5,650.6z"/>
	<path class="st0" d="M104.3,648.8c-9.3-2.8-15.5-7.8-19.6-16.2c-4.2-8.1-4.4-10.4-4.4-36.8c0-27.2,0.2-28.2,4.9-37.1
		c6.4-12.7,13.5-16.2,34.2-16.9c24.8-1,36.3,3.7,42.6,17.6c1.7,4,3.3,10.4,3.3,14.6v7.3h-11.3c-10.6,0-11.3-0.2-11.3-4
		c0-8.6-3.7-10.7-19-10.7c-19.9,0-20.8,1.2-20.8,29.4c0,26.4,1.2,28.7,16.2,30c15.8,1.2,23.8-2.4,23.8-11.1c0-4,0.5-4.2,11.3-4.2
		h11.3v7.4c0,8.3-4.7,19.6-10,24.3c-1.9,1.9-6.6,4.4-10.2,5.7C137.9,650.6,112,651.1,104.3,648.8z"/>
	<path class="st0" d="M193.9,648.5c-8.6-3.1-14.2-7.9-18-15.8c-3.3-6.7-3.7-10.6-3.7-36.8c0-34,2.1-40.9,14.2-49
		c6-4,9.2-4.7,23.2-5.2c19.9-0.9,30.3,1.6,37.7,9.2c8.1,7.9,9.7,16,9.7,46.6c0,23.9-0.3,27.9-3.7,34.9c-4.2,8.8-9.7,13.5-19.7,16.2
		C225.1,651.1,200.8,650.9,193.9,648.5z M231.4,621.3c2.8-3.5,3.3-7.1,3.3-26.2c0-22,0-22.4-4.5-25.9c-7.6-6-29.4-4.5-34,2.3
		c-0.7,1-1.4,12.1-1.4,24.8v22.9l4.9,3.7c4,3.3,6.4,3.7,16.6,3.1C226.2,625.5,228.8,624.6,231.4,621.3z"/>
	<path class="st0" d="M262.8,608.6c0.5-39,0.9-42.6,4.4-49c4.5-8.8,9-12.7,17.3-15.8c7.9-2.8,31.7-3.1,41.2-0.5
		c8.8,2.4,19,12.7,21.5,21.5c1,4.2,1.9,22.9,1.9,46.5v39.3h-11.3h-11.3v-37.9c0-45.8,0-45.6-17.5-46.6c-14.9-0.9-19.9,1.2-22.2,9.5
		c-1,3.7-1.9,22-1.9,40.9v34.2h-11.4h-11.4L262.8,608.6z"/>
	<path class="st0" d="M354.2,596v-54.6h11.3h11.1l0.5,18.3l0.5,18.3l16.4-18.2l16.4-18.2l16.2-0.2c9.5-0.2,16,0.5,16,1.6
		c0,1-0.7,1.7-1.4,1.7c-0.9,0-6.9,6-13.9,13.7L415,572.3l7.9,4.2c19.7,10,24.1,46.5,7.6,63.8c-8.5,8.8-15.3,10.4-48.2,10.4h-28.2
		L354.2,596L354.2,596z M414.4,622.5c1.7-1.7,2.8-5.9,3-10.9c0.3-12.3-3.7-14.8-24.3-14.8h-16.2v14.9v14.9l17.3-0.7
		C407.2,625.5,412.1,624.6,414.4,622.5z"/>
	<path class="st0" d="M446.1,596v-54.6h11.3h11.3V596v54.6h-11.3h-11.3V596z"/>
	<path class="st0" d="M473.8,596v-54.6h39.8h39.8v12.1v12.1h-28.6h-28.6v11.3v11.3h25.2h25.2v12.1v12.1h-25.2h-25.2v6.9v6.9h28.6
		h28.6v12.1v12.1h-39.8h-39.8V596z"/>
	<path class="st0" d="M558.7,596.2v-54.8H570h11.1l0.5,18.2l0.5,18.2l16.4-18.2l16.2-18.2h15.3c8.3,0,15.3,0.5,15.3,1
		c0,0.5-5.9,7.3-13,15.1c-7.1,7.8-13,14.8-13,15.5c0,0.9,1.4,1.4,3.1,1.4c5.2,0,15.5,10,18.5,18c2.3,5.7,2.8,11.6,2.4,22.2
		c-0.5,12.3-1.4,15.8-5.4,21.7c-7.8,11.8-13.4,13.5-48.5,14.1l-30.8,0.5L558.7,596.2L558.7,596.2z M616.6,622.7
		c3.7-3,4.5-5.1,4.5-11.3c0-12.3-3.5-14.6-23.4-14.6h-16.4v14.8v14.8h15.5C609.6,626.4,612.6,625.9,616.6,622.7z"/>
	<path class="st0" d="M650.8,649.4c0-0.9,5.2-5.9,11.6-11.3c10.4-9,12.5-10,19.4-10c7.4,0,8.5-0.7,21.3-13.5l13.4-13.4v-17.7
		c0-16.4-0.2-17.6-3.5-17.6c-1.9,0-3.5-0.7-3.5-1.4c0-1.7,24.3-25.5,24.8-24.5c0.2,0.3,0.2,18.3-0.2,39.8l-0.5,39.3l-16.9,15.8
		l-17.1,15.8h-24.5C661.5,650.6,650.6,650.1,650.8,649.4z"/>
	<path class="st0" d="M852.7,648.8c-9.5-2.4-15.8-7.6-19.9-16.2c-3.3-6.7-3.7-10.6-3.7-36.8c0-34.2,2.1-40.9,14.4-49
		c6.6-4.4,8.1-4.7,27-4.7c18,0,20.8,0.5,27.2,4.2c8.6,4.9,14.4,14.2,15.8,26.2l1,8.6h-11.6c-10.9,0-11.4-0.2-11.4-4.2
		c0-6.9-7.4-11.4-19.2-11.4c-19.2,0-22.4,4.2-22.4,30.3c0,26.4,3.1,30.3,22.7,30.3c8.6,0,11.1-0.7,14.6-4.4c2.4-2.3,4.4-5.7,4.4-7.8
		c0-3.1,1-3.5,11.3-3.5c11.1,0,11.3,0,11.3,4.9c0,12.8-7.4,25.5-18,31C889.6,649.9,862.7,651.3,852.7,648.8z"/>
	<path class="st0" d="M1127.9,649c-8.8-2.3-15.8-7.3-20.1-14.8c-3.8-6.7-4-8.6-4-38.3c0-30.1,0.2-31.5,4.4-38.8
		c6.7-12,14.1-14.9,37.3-14.9c22.5,0,29.8,2.6,37,13.5c4.5,6.6,4.7,8.3,5.2,31.9l0.7,24.8H1163h-25.3v-12.1v-12.1h13.9h13.9v-7.4
		c0-11.1-2.8-13.9-15.3-14.8c-23.1-1.7-24.6,0.3-24.6,30c0,22.9,0,23.2,4.5,26.7c4,3.1,7.1,3.7,24.3,3.7h19.7v12.1v12.1l-20.3-0.2
		C1142.5,650.2,1130.8,649.7,1127.9,649z"/>
	<path class="st0" d="M1218.4,648.8c-9.5-2.4-15.8-7.6-19.9-16.2c-3.3-6.7-3.7-10.6-3.7-37c0-24.8,0.5-30.3,3.3-36.4
		c6.4-14.1,17.8-18.7,42.6-17.6c18.9,0.9,27.7,5.1,34,16c4,6.7,4.2,8.6,4.2,36.6c0,16.2-0.5,31.5-1.2,34.2
		c-1.9,6.2-9.2,14.8-16,18.2C1255.3,649.9,1228.4,651.3,1218.4,648.8z M1252.9,622c4.2-4,4.4-5.2,4.4-26s-0.2-22-4.4-26
		c-3.5-3.7-5.9-4.4-14.6-4.4c-14.6,0-18.7,1.9-20.8,9.9c-2.4,8.5-2.4,32.4,0,40.9c2.1,7.9,5.5,9.7,20.3,9.7
		C1247.1,626.4,1249.2,625.9,1252.9,622z"/>
</g>
</svg>
